<?xml version="1.0" standalone="no"?>
<!DOCTYPE svg PUBLIC "-//W3C//DTD SVG 20010904//EN"
 "http://www.w3.org/TR/2001/REC-SVG-20010904/DTD/svg10.dtd">
<svg version="1.0" xmlns="http://www.w3.org/2000/svg"
 width="260.000000pt" height="260.000000pt" viewBox="0 0 260.000000 260.000000"
 preserveAspectRatio="xMidYMid meet">
<metadata>
Created by potrace 1.11, written by Peter Selinger 2001-2013
</metadata>
<g transform="translate(0.000000,260.000000) scale(0.100000,-0.100000)"
fill="#000000" stroke="none">
<path d="M1656 2166 c-20 -20 -21 -28 -20 -317 1 -163 4 -301 8 -307 3 -6 2
-13 -4 -17 -6 -4 -7 -13 -1 -23 6 -11 6 -24 0 -35 -6 -9 -6 -17 -1 -17 10 0 9
-30 -2 -48 -4 -6 -3 -12 2 -12 4 0 6 -22 2 -50 -4 -27 -4 -50 -1 -50 3 0 7
-84 8 -188 5 -481 9 -554 28 -568 21 -16 50 -4 57 23 4 17 3 179 -5 563 l-4
165 71 1 c66 1 191 10 191 14 0 1 9 3 20 5 11 2 35 7 54 10 60 11 109 45 158
110 7 9 55 96 74 135 14 29 51 123 56 144 3 11 6 57 7 101 2 75 -6 110 -29
127 -5 4 -6 8 -2 8 29 0 -157 135 -229 165 -65 28 -153 53 -209 60 -16 2 -30
4 -30 5 0 3 -73 11 -124 13 -44 3 -58 -1 -75 -17z m228 -81 c35 -4 199 -57
206 -65 3 -3 25 -18 50 -32 25 -14 59 -38 75 -52 17 -14 33 -26 36 -26 20 0
31 -135 16 -190 -15 -57 -59 -150 -70 -150 -6 0 -8 -3 -4 -6 9 -10 -32 -82
-72 -124 -25 -27 -48 -40 -76 -45 -22 -4 -49 -10 -60 -12 -29 -6 -100 -13
-182 -17 -60 -3 -73 0 -77 13 -2 9 -4 175 -4 369 l0 354 67 -6 c36 -4 79 -8
95 -11z"/>
<path d="M1053 2076 c-7 -6 -18 -16 -25 -22 -26 -22 -68 -74 -68 -84 0 -5 -4
-10 -10 -10 -5 0 -10 -5 -10 -10 0 -10 -8 -22 -37 -55 -7 -7 -13 -16 -13 -19
0 -3 -19 -32 -43 -63 -54 -72 -117 -174 -117 -191 0 -6 -5 -12 -11 -12 -5 0
-8 -3 -5 -8 2 -4 -2 -15 -9 -25 -12 -17 -14 -16 -26 13 -8 16 -17 30 -21 30
-5 0 -8 5 -8 11 0 6 -9 23 -20 39 -11 15 -17 30 -13 34 3 3 2 6 -3 6 -5 0 -18
17 -29 38 -11 20 -23 42 -28 47 -4 6 -30 46 -58 90 -70 110 -147 185 -188 185
-17 0 -32 -5 -33 -12 -4 -35 -3 -44 9 -55 6 -7 16 -13 20 -13 15 0 72 -69 121
-145 70 -109 162 -265 162 -274 0 -5 3 -11 8 -13 10 -4 46 -79 47 -98 1 -8
-11 -42 -25 -75 -15 -33 -35 -79 -45 -102 -10 -24 -22 -43 -27 -43 -4 0 -7 -3
-6 -7 1 -5 -6 -21 -16 -38 -11 -16 -26 -41 -35 -55 -8 -14 -14 -28 -13 -32 1
-5 -2 -8 -7 -8 -4 0 -16 -20 -25 -45 -10 -25 -22 -45 -27 -45 -5 0 -8 -3 -7
-7 3 -12 -35 -113 -42 -113 -4 0 -7 -6 -7 -12 -1 -7 -13 -44 -28 -83 -34 -89
-59 -168 -57 -177 1 -5 -3 -8 -9 -8 -6 0 -9 -7 -5 -15 3 -8 0 -15 -6 -15 -6 0
-9 -3 -5 -6 3 -3 -1 -24 -9 -46 -25 -72 -14 -118 28 -118 10 0 22 10 27 23 20
48 24 62 22 71 -1 5 1 16 5 25 4 9 8 21 10 26 1 6 17 51 34 100 18 50 33 96
33 103 0 6 4 12 9 12 4 0 8 6 8 12 0 19 43 122 55 130 5 4 7 8 2 8 -4 0 3 19
15 43 12 23 23 47 24 54 1 7 33 63 70 125 37 62 75 133 85 158 9 24 21 46 25
47 9 3 40 -56 36 -69 -1 -5 2 -8 8 -8 5 0 10 -8 10 -18 0 -10 4 -22 9 -27 8
-9 36 -87 33 -92 -1 -1 5 -15 13 -30 8 -14 12 -30 9 -35 -3 -4 -1 -8 5 -8 6 0
13 -16 17 -35 3 -19 11 -35 17 -35 6 0 8 -3 4 -6 -3 -4 3 -29 14 -58 11 -28
22 -58 24 -66 3 -15 14 -42 51 -125 10 -22 19 -44 20 -50 1 -5 8 -23 15 -40 7
-16 13 -33 13 -37 1 -3 4 -10 9 -14 4 -4 7 -16 7 -26 0 -10 3 -18 8 -18 4 0
13 -13 20 -29 14 -32 51 -45 70 -25 17 18 16 21 -22 110 -34 80 -48 115 -51
124 -1 3 -9 23 -19 45 -10 22 -19 45 -20 50 -1 6 -7 19 -13 30 -6 11 -12 25
-13 30 -1 6 -6 20 -11 33 -5 13 -9 30 -9 38 0 8 -4 14 -8 14 -8 0 -10 7 -14
50 -1 11 -6 20 -10 20 -4 0 -8 7 -8 15 0 8 -4 23 -9 33 -5 9 -27 64 -49 122
-22 58 -56 139 -75 180 -20 41 -33 79 -29 85 3 5 8 19 9 30 2 10 7 22 11 25 4
3 16 23 27 45 35 70 117 195 128 195 6 0 8 3 4 6 -6 6 70 116 85 122 4 2 6 7
3 12 -3 4 22 35 55 69 53 53 59 64 50 81 -6 11 -14 20 -18 21 -4 0 -14 2 -22
4 -8 1 -20 -3 -27 -9z"/>
</g>
</svg>
